<svg xmlns="http://www.w3.org/2000/svg" viewBox="0 0 152.56 37.98"><defs><style>.cls-1{fill:#041419;fill-rule:evenodd;}</style></defs><title>Asset 1</title><g id="Layer_2" data-name="Layer 2"><g id="Layer_1-2" data-name="Layer 1"><path class="cls-1" d="M89.26,10.92a27.37,27.37,0,0,1-9.16,2.37h0V3.36H84L81.7,0,77.4,0l-.93,1.32L75.54,0,71.25,0,68.94,3.36h3.91V13.3h0a27.37,27.37,0,0,1-9.16-2.37h0l-2.88,4h0s.74.35,3.84,1.44h0l.93-1.41h0A34.94,34.94,0,0,0,76.47,16.6a34.94,34.94,0,0,0,10.89-1.67h0l.93,1.41h0c3.11-1.09,3.84-1.44,3.84-1.44h0l-2.88-4ZM76.12,15.76A34.75,34.75,0,0,1,65.32,14h0l-.93,1.35h0a14.57,14.57,0,0,1-2.43-.9h0l1.92-2.66h0a30.45,30.45,0,0,0,9.61,2.24h0V2.63h-3.3L71.57.7h3.56l1,1.44V15.76ZM87.62,14a34.75,34.75,0,0,1-10.8,1.73h0V2.15l1-1.44h3.56l1.38,1.92h-3.3V14.06h0a30.45,30.45,0,0,0,9.61-2.24h0L91,14.48h0a14.57,14.57,0,0,1-2.43.9h0L87.62,14Z"/><path class="cls-1" d="M149.24,26.43a16.32,16.32,0,0,0-3.91,3.67h-1.45s-.38.11-.38-.38h0V26h0a.28.28,0,0,1,.32-.34h1.09s.3,0,.53.45h0l.15.32h0a.4.4,0,0,0,.53.26s.43.06.3-.43,0-.06,0-.06h0l-.62-1.9h0a.34.34,0,0,0-.36-.26h0l-.3,0h0s-.32,0-.26.36a.33.33,0,0,1-.36.41h-.64s-.34.09-.34-.53h0V23.18h0s-.06-.32.41-.32h2.22s.51-.17.83.56h0l.17.36h0s0,.36.51.26c0,0,.56.06.38-.45h0l-.41-1.24h0s0-.28-.38-.28h-6.34a.29.29,0,0,0-.36.32h0v.21h0s-.06.19.36.3c0,0,.47,0,.47.64h0l0,6h0s0,.56-.36.66c0,0-.41-.13-.43.34,0,0-.17.38.41.41H144s.53,0,.26.34a9.84,9.84,0,0,1-3.16,3,7.52,7.52,0,0,1-3.72.88H14.22s-2.61.26-4-1.11h0L8.17,31.83h0s-.17-.28.13-.36c0,0,2.54-.49,3.44-2.2a8.14,8.14,0,0,0,1-4.19h0V19.36h0s-.09-.41.43-.43h.51s.26.11.26-.41h0v-.24h0s.17-.34-.32-.34H9.2s-.32-.11-.34.3h0v.28h0s-.13.38.38.38H9.6s.58-.09.56.64h0v6.92h0s.28,3.61-2.95,4.08c0,0-2.11-3.1-3.44-3.84,0,0-1.86-1.41-3.31-.11,0,0-1.43,1.62.75,3.5a9.31,9.31,0,0,0,5.72,1.64s1.88,2.84,2.29,3.31a9,9,0,0,0,2.54,2.14c1.15.47,1.35.77,5.34.77H135s3,.19,4.76-.83a10.21,10.21,0,0,0,2.95-2.41h0l3.1-3.72h0s3.18.09,4.89-1c0,0,1.75-.9,1.88-2.33s-1.26-2.2-3.31-1.22ZM3.58,30.3c-1.37-.62-1-1.54-1-1.54.3-.66,1.22-.21,1.22-.21a7.55,7.55,0,0,1,2.33,2.29,3.83,3.83,0,0,1-2.56-.53Zm145.64-.7a6.07,6.07,0,0,1-2.86.53,12.69,12.69,0,0,1,1.54-1.71c1-.85,1.64-.45,1.64-.45.94.85-.32,1.62-.32,1.62Z"/><path class="cls-1" d="M22.8,30.49s0-.24-.34-.32c0,0-.41,0-.64-.62h0l-2.46-7.22h0A.33.33,0,0,0,19,22H17.05s-.27,0-.44.41h0l-2.73,7.28h0s0,.49-.88.47a.31.31,0,0,0-.3.38h0v.26h0s0,.28.38.28h2.35s.3,0,.33-.23h0v-.26h0a.31.31,0,0,0-.28-.38s-.64-.09-.43-.66h0l.34-.79h3.84l.36.92h0s.15.45-.15.51c0,0-.45,0-.45.26h0v.32h0s-.13.32.44.32h3a.26.26,0,0,0,.35-.28h0l0-.3Zm-4.16-2.73H16.2c-.62,0-.3-.58-.3-.58h0l1.28-3.33h0c.26-.51.51,0,.51,0h0l1.07,3.27h0c.26.81-.13.64-.13.64Z"/><path class="cls-1" d="M79.61,30.08H78.16s-.38.11-.38-.38h0V26h0a.28.28,0,0,1,.32-.34h1.09s.3,0,.53.45h0l.15.32h0a.4.4,0,0,0,.53.26s.43.06.3-.43,0-.06,0-.06h0l-.62-1.9h0A.34.34,0,0,0,79.7,24h0l-.3,0h0s-.32,0-.26.36a.33.33,0,0,1-.36.41h-.64s-.34.09-.34-.53h0V23.16h0s-.06-.32.41-.32h2.22s.51-.17.83.56h0l.17.36h0s0,.36.51.26c0,0,.56.06.38-.45h0l-.41-1.24h0s0-.28-.38-.28H75.19a.29.29,0,0,0-.36.32h0v.21h0s-.06.19.36.3c0,0,.47,0,.47.64h0l0,6h0s0,.56-.36.66c0,0-.41-.13-.43.34,0,0-.17.38.41.41h6.41a.32.32,0,0,0,.38-.19h0l.53-1.28h0s.19-.41-.21-.41h-.41a.27.27,0,0,0-.32.19h0l-.23.41h0s0,.36-.66.38H79.61Z"/><path class="cls-1" d="M28.57,30.08H27.12s-.38.11-.38-.38h0V26h0a.28.28,0,0,1,.32-.34h1.09s.3,0,.53.45h0l.15.32h0a.4.4,0,0,0,.53.26s.43.06.3-.43,0-.06,0-.06h0L29,24.29h0a.34.34,0,0,0-.36-.26h0l-.3,0h0s-.32,0-.26.36a.33.33,0,0,1-.36.41h-.64s-.34.09-.34-.53h0V23.16h0s-.06-.32.41-.32h2.22s.51-.17.83.56h0l.17.36h0s0,.36.51.26c0,0,.56.06.38-.45h0l-.41-1.24h0s0-.28-.38-.28H24.15a.29.29,0,0,0-.36.32h0v.21h0s-.06.19.36.3c0,0,.47,0,.47.64h0l0,6h0s0,.56-.36.66c0,0-.41-.13-.43.34,0,0-.17.38.41.41H30.6a.32.32,0,0,0,.38-.19h0l.53-1.28h0s.19-.41-.21-.41H30.9a.27.27,0,0,0-.32.19h0l-.24.41h0s0,.36-.66.38H28.57Z"/><path class="cls-1" d="M46.79,30.16H45.33s-.38.11-.38-.38h0V26.08h0a.28.28,0,0,1,.32-.34h1.09s.3,0,.53.45h0l.15.32h0a.4.4,0,0,0,.53.26s.43.06.3-.43,0-.06,0-.06h0l-.62-1.9h0a.34.34,0,0,0-.36-.26h0l-.3,0h0s-.32,0-.26.36a.33.33,0,0,1-.36.41h-.64s-.34.09-.34-.53h0V23.24h0s-.06-.32.41-.32H47.6s.51-.17.83.56h0l.17.36h0s0,.36.51.26c0,0,.56.06.38-.45h0l-.41-1.24h0s0-.28-.38-.28H42.36a.29.29,0,0,0-.36.32h0v.21h0s-.06.19.36.3c0,0,.47,0,.47.64h0l0,6h0s0,.56-.36.66c0,0-.41-.13-.43.34,0,0-.17.38.41.41h6.41a.32.32,0,0,0,.38-.19h0l.53-1.28h0s.19-.41-.21-.41h-.41a.27.27,0,0,0-.32.19h0l-.23.41h0s0,.36-.66.38H46.79Z"/><path class="cls-1" d="M36.56,21.86a4.51,4.51,0,0,0-4.42,4.57c-.3,4.63,4.23,4.7,4.23,4.7A5.62,5.62,0,0,0,39.89,30a.87.87,0,0,0,.32-.64h0l.09-.85h0a.53.53,0,0,1,.58-.7.34.34,0,0,0,.3-.34h0v-.15h0s0-.28-.47-.28H37.45s-.36-.06-.36.23h0v.21h0s0,.3.36.3a.71.71,0,0,1,.79.73,1.69,1.69,0,0,1-1.82,1.88c-2,0-1.94-1.86-2-4.25s.68-3.52,2.31-3.5a2.61,2.61,0,0,1,2.35,1.62.44.44,0,0,0,.49.26h0l.41-.17h0s.26.06.15-.32h0l-.56-1.75h0s0-.32-.3-.26a.31.31,0,0,0-.29.19s.07.49-.73.15a3,3,0,0,0-1.69-.47Z"/><path class="cls-1" d="M60.76,30.53s0-.24-.36-.26h-.18s-.52,0-1-.69a11.59,11.59,0,0,0-1.94-2.77s-.23-.18,0-.26a3.64,3.64,0,0,0,1.6-.77s.68-.28.66-1.67c0,0,.15-2-2.8-2.05H51.31a.29.29,0,0,0-.36.32h0v.21h0s-.06.19.36.3c0,0,.47,0,.47.64h0l0,6h0s0,.65-.45.66c0,0-.43,0-.4.37,0,0-.14.44.43.46h3s.44.08.45-.22h0v-.34h0s0-.27-.4-.27a.59.59,0,0,1-.45-.54h0V27.2h0a.28.28,0,0,1,.32-.34h.61a1.28,1.28,0,0,1,1.16.71h0L57.3,30h0a1.76,1.76,0,0,0,1.52,1h1.71s.26.06.26-.3h0l0-.23ZM55.82,26l-1.56,0h0c-.09,0-.3-.06-.3-.54h0V23.16h0s-.06-.32.4-.32h0l1.79,0h0a1.41,1.41,0,0,1,1.45,1.37A1.53,1.53,0,0,1,55.82,26Z"/><path class="cls-1" d="M140,30.53s0-.24-.36-.26h-.18s-.52,0-1-.69a11.6,11.6,0,0,0-1.94-2.77s-.24-.18,0-.26a3.64,3.64,0,0,0,1.6-.77s.68-.28.66-1.67c0,0,.15-2-2.8-2.05H130.6a.29.29,0,0,0-.36.32h0v.21h0s-.06.19.36.3c0,0,.47,0,.47.64h0l0,6h0s0,.65-.45.66c0,0-.43,0-.4.37,0,0-.14.44.43.46h3s.44.08.45-.22h0v-.34h0s0-.27-.4-.27a.59.59,0,0,1-.45-.54h0V27.2h0a.28.28,0,0,1,.32-.34h.61a1.28,1.28,0,0,1,1.16.71h0L136.58,30h0a1.77,1.77,0,0,0,1.52,1h1.71s.26.06.26-.3h0l0-.23ZM135.1,26l-1.56,0h0c-.09,0-.3-.06-.3-.54h0V23.16h0s-.06-.32.4-.32h0l1.79,0h0a1.41,1.41,0,0,1,1.45,1.37A1.53,1.53,0,0,1,135.1,26Z"/><path class="cls-1" d="M65.22,27.24a.36.36,0,0,0,.36-.36h0v-.77h0a.36.36,0,0,0-.36-.36H61.74a.36.36,0,0,0-.36.36h0v.77h0a.36.36,0,0,0,.36.36h3.48Z"/><path class="cls-1" d="M67.2,22s-.26,0-.26.26h0v.27h0s0,.33.38.26a.61.61,0,0,1,.69.64h0v6.21h0s.06.46-.48.48c0,0-.35,0-.37.26h0v.36h0s0,.32.29.34h5.77s.19.09.42-.36h0l.58-1.27h0s.14-.35-.19-.35h-.42a.34.34,0,0,0-.3.19h0l-.21.4h0a.73.73,0,0,1-.75.42H70.61s-.5.06-.51-.42h0v-6.3h0s-.06-.58.43-.59h.24s.23,0,.22-.3h0v-.22h0s0-.28-.3-.28H67.2Z"/><path class="cls-1" d="M115.21,22s-.26,0-.26.26h0v.27h0s0,.33.38.26a.61.61,0,0,1,.69.64h0v6.21h0s.06.46-.48.48c0,0-.35,0-.37.26h0v.36h0s0,.32.29.34h5.77s.19.09.42-.36h0l.58-1.27h0s.14-.35-.19-.35h-.42a.34.34,0,0,0-.3.19h0l-.21.4h0a.73.73,0,0,1-.75.42h-1.71s-.5.06-.51-.42h0v-6.3h0s-.06-.58.43-.59h.24s.23,0,.22-.3h0v-.22h0s0-.28-.3-.28h-3.49Z"/><path class="cls-1" d="M89.16,17.87s-5.7-.3-5.77,6.73c0,0-.26,6.13,5.64,6.43a4.8,4.8,0,0,0,2.58-.68s.38-.17.47.15a.46.46,0,0,0,.51.38s.45,0,.49-.43h0L93.88,28h0s.15-.41-.19-.41h0l-.3,0h0a.43.43,0,0,0-.36.3,4,4,0,0,1-.94,1.35,3.34,3.34,0,0,1-2.63.9s-3.42.09-3.29-5.55c0,0-.3-5.83,3.4-5.81a3.63,3.63,0,0,1,3.05,1.77.61.61,0,0,0,.53.36h.36s.3,0,.19-.47h0l-.58-2.22h0s-.06-.28-.3-.28h-.43a.25.25,0,0,0-.15.3s.06.28-.09.36-.11.17-.41,0a5.3,5.3,0,0,0-2.61-.75Z"/><path class="cls-1" d="M97.25,28.22v0Z"/><path class="cls-1" d="M103.87,26.41a4.51,4.51,0,1,0-9,0s-.06,4.46,4.51,4.66c4.57-.19,4.51-4.66,4.51-4.66Zm-2.39,1.9c-.41,2.22-2.11,1.9-2.11,1.9s-1.71.33-2.11-1.9,0-.33,0-.09A11.54,11.54,0,0,1,97.36,24a2.14,2.14,0,0,1,4,0,11.55,11.55,0,0,1,.11,4.18c0-.24.37-2,0,.09Z"/><path class="cls-1" d="M101.49,28.22v0Z"/><path class="cls-1" d="M105.11,22s-.3,0-.3.26h0v.27h0s0,.27.38.27h0l.19,0h0s.4-.06.4.61h0V28h0a3.43,3.43,0,0,0,3.7,3.16s3.64.19,3.52-3.27h0V23.31h0a.46.46,0,0,1,.46-.54h.16a.22.22,0,0,0,.21-.24h0v-.24h0a.22.22,0,0,0-.24-.29h-2.13s-.29,0-.29.23h0l0,.21h0a.28.28,0,0,0,.3.34s.58-.1.59.67h0v4.44h0s.22,2.32-1.87,2.32c0,0-2.34.4-2.34-2.47h0V23.27h0s.06-.5.51-.51h.13s.21,0,.22-.27h0v-.22h0s.06-.27-.21-.28h-3.4Z"/><path class="cls-1" d="M121.63,22a.41.41,0,0,0-.37.23h0l-.56,1.35h0s-.14.3.19.3h.43s.16.06.33-.25h0L122,23h0a.54.54,0,0,1,.45-.2h1.28s.38-.05.39.47h0v6.46h0s.06.45-.2.49h-.34a.24.24,0,0,0-.2.23h0v.34h0s0,.26.25.26h3.32s.23,0,.23-.23h0v-.26h0s.05-.32-.19-.32h-.39s-.42.11-.37-.61h0V23.3h0s-.13-.49.36-.49h1.27s.25-.07.44.27h0l.31.53h0a.54.54,0,0,0,.42.26h.41s.3,0,.17-.34h0L129,22.18h0s0-.19-.45-.19h-6.9Z"/></g></g></svg>