<svg xmlns="http://www.w3.org/2000/svg" viewBox="0 0 186 46.3"><defs><style>.cls-1{fill:#9e987d;fill-rule:evenodd;}</style></defs><title>Asset 5</title><g id="Layer_2" data-name="Layer 2"><g id="Layer_1-2" data-name="Layer 1"><path class="cls-1" d="M108.82,13.32a33.37,33.37,0,0,1-11.17,2.89h0V4.1h4.77L99.6,0,94.37,0,93.24,1.65,92.1,0,86.87,0,84.06,4.1h4.77V16.21h0a33.37,33.37,0,0,1-11.17-2.89h0l-3.52,4.84h0s.9.43,4.69,1.76h0L80,18.2h0a42.6,42.6,0,0,0,13.28,2,42.61,42.61,0,0,0,13.28-2h0l1.13,1.72h0c3.79-1.33,4.69-1.76,4.69-1.76h0l-3.52-4.84Zm-16,5.9a42.36,42.36,0,0,1-13.16-2.11h0l-1.13,1.64h0a17.76,17.76,0,0,1-3-1.09h0l2.34-3.24h0A37.13,37.13,0,0,0,89.6,17.15h0V3.2h-4L87.26.86H91.6l1.21,1.76v16.6Zm14-2.11a42.36,42.36,0,0,1-13.16,2.11h0V2.62L94.88.86h4.34l1.68,2.34h-4V17.15h0a37.13,37.13,0,0,0,11.72-2.73h0l2.34,3.24h0a17.76,17.76,0,0,1-3,1.09h0l-1.13-1.64Z"/><path class="cls-1" d="M182,32.22a19.9,19.9,0,0,0-4.77,4.48h-1.77s-.47.13-.47-.47h0v-4.5h0a.35.35,0,0,1,.39-.42h1.33s.36-.05.65.55h0l.18.39h0a.48.48,0,0,0,.65.31s.52.08.36-.52,0-.08,0-.08h0l-.76-2.32h0a.41.41,0,0,0-.44-.31h0l-.36,0h0s-.39,0-.31.44a.4.4,0,0,1-.44.49h-.78s-.42.1-.42-.65h0V28.27h0s-.08-.39.49-.39h2.71s.62-.21,1,.68h0l.21.44h0s0,.44.62.31c0,0,.68.08.47-.55h0L180,27.25h0s0-.34-.47-.34H171.8a.35.35,0,0,0-.44.39h0v.26h0s-.08.23.44.36c0,0,.57,0,.57.78h0l-.05,7.37h0s0,.68-.44.81c0,0-.49-.16-.52.42,0,0-.21.47.49.49h3.72s.65,0,.31.42A12,12,0,0,1,172,41.88,9.17,9.17,0,0,1,167.5,43H17.33s-3.18.31-4.84-1.35h0L10,38.81h0s-.21-.34.16-.44c0,0,3.1-.6,4.19-2.68a9.92,9.92,0,0,0,1.22-5.1h0v-7h0s-.1-.49.52-.52h.62s.31.13.31-.49h0V22.3h0s.21-.42-.39-.42H11.21s-.39-.13-.42.36h0v.34h0s-.16.47.47.47h.44s.7-.1.68.78h0v8.44h0s.34,4.4-3.59,5c0,0-2.58-3.78-4.19-4.69,0,0-2.27-1.72-4-.13,0,0-1.74,2,.91,4.27a11.35,11.35,0,0,0,7,2s2.29,3.46,2.79,4a11,11,0,0,0,3.1,2.6c1.41.57,1.64.94,6.51.94H164.56s3.7.23,5.81-1A12.44,12.44,0,0,0,174,42.33h0l3.78-4.53h0s3.88.1,6-1.25c0,0,2.13-1.09,2.29-2.84s-1.54-2.68-4-1.48ZM4.36,36.94c-1.67-.76-1.2-1.87-1.2-1.87.36-.81,1.48-.26,1.48-.26a9.21,9.21,0,0,1,2.84,2.79,4.67,4.67,0,0,1-3.12-.65Zm177.56-.86a7.4,7.4,0,0,1-3.49.65,15.47,15.47,0,0,1,1.87-2.08c1.2-1,2-.55,2-.55,1.15,1-.39,2-.39,2Z"/><path class="cls-1" d="M27.8,37.17s0-.29-.42-.39c0,0-.49,0-.78-.76h0l-3-8.8h0a.4.4,0,0,0-.45-.42H20.79s-.33,0-.54.49h0l-3.33,8.88h0s0,.6-1.07.57a.38.38,0,0,0-.36.47h0v.31h0s-.05.34.46.34h2.86s.37,0,.4-.29h0v-.31h0a.37.37,0,0,0-.34-.47s-.78-.1-.52-.81h0l.42-1h4.69l.44,1.12h0s.18.55-.18.62c0,0-.55,0-.55.31h0v.39h0s-.16.39.54.39h3.7a.31.31,0,0,0,.42-.34h0l0-.36Zm-5.08-3.33h-3c-.76,0-.36-.7-.36-.7h0L21,29.07h0c.31-.63.62,0,.62,0h0l1.3,4h0c.31,1-.16.78-.16.78Z"/><path class="cls-1" d="M97.06,36.68H95.29s-.47.13-.47-.47h0V31.7h0a.35.35,0,0,1,.39-.42h1.33s.36-.05.65.55h0l.18.39h0a.48.48,0,0,0,.65.31s.52.08.36-.52,0-.08,0-.08h0l-.76-2.32h0a.41.41,0,0,0-.44-.31h0l-.36,0h0s-.39,0-.31.44a.4.4,0,0,1-.44.49h-.78s-.42.1-.42-.65h0V28.24h0s-.08-.39.49-.39h2.71s.62-.21,1,.68h0l.21.44h0s0,.44.63.31c0,0,.68.08.47-.55h0l-.49-1.51h0s0-.34-.47-.34H91.67a.35.35,0,0,0-.44.39h0v.26h0s-.08.23.44.36c0,0,.57,0,.57.78h0l-.05,7.37h0s0,.68-.44.81c0,0-.49-.16-.52.42,0,0-.21.47.49.49h7.81a.39.39,0,0,0,.47-.23h0l.65-1.56h0s.23-.49-.26-.49H99.9a.33.33,0,0,0-.39.23h0l-.29.49h0s-.05.44-.81.47H97.06Z"/><path class="cls-1" d="M34.83,36.68H33.06s-.47.13-.47-.47h0V31.7h0a.35.35,0,0,1,.39-.42h1.33s.36-.05.65.55h0l.18.39h0a.48.48,0,0,0,.65.31s.52.08.36-.52,0-.08,0-.08h0l-.76-2.32h0a.41.41,0,0,0-.44-.31h0l-.36,0h0s-.39,0-.31.44a.4.4,0,0,1-.44.49H33s-.42.1-.42-.65h0V28.24h0s-.08-.39.49-.39h2.71s.62-.21,1,.68h0L37,29h0s0,.44.62.31c0,0,.68.08.47-.55h0l-.49-1.51h0s0-.34-.47-.34H29.44a.35.35,0,0,0-.44.39h0v.26h0s-.08.23.44.36c0,0,.57,0,.57.78h0L30,36.05h0s0,.68-.44.81c0,0-.49-.16-.52.42,0,0-.21.47.49.49H37.3a.39.39,0,0,0,.47-.23h0L38.42,36h0s.23-.49-.26-.49h-.49a.33.33,0,0,0-.39.23h0l-.29.49h0s-.05.44-.81.47H34.83Z"/><path class="cls-1" d="M57,36.77H55.27s-.47.13-.47-.47h0v-4.5h0a.35.35,0,0,1,.39-.42h1.33s.36-.05.65.55h0l.18.39h0a.48.48,0,0,0,.65.31s.52.08.36-.52,0-.08,0-.08h0l-.76-2.32h0a.41.41,0,0,0-.44-.31h0l-.36,0h0s-.39,0-.31.44a.4.4,0,0,1-.44.49h-.78s-.42.1-.42-.65h0V28.33h0s-.08-.39.49-.39H58s.62-.21,1,.68h0l.21.44h0s0,.44.63.31c0,0,.68.08.47-.55h0l-.49-1.51h0s0-.34-.47-.34H51.65a.35.35,0,0,0-.44.39h0v.26h0s-.08.23.44.36c0,0,.57,0,.57.78h0l-.05,7.37h0s0,.68-.44.81c0,0-.49-.16-.52.42,0,0-.21.47.49.49h7.81a.39.39,0,0,0,.47-.23h0l.65-1.56h0s.23-.49-.26-.49h-.49a.33.33,0,0,0-.39.23h0l-.29.49h0s-.05.44-.81.47H57Z"/><path class="cls-1" d="M44.57,26.65a5.5,5.5,0,0,0-5.39,5.57C38.81,37.87,44.33,38,44.33,38a6.85,6.85,0,0,0,4.3-1.41,1.06,1.06,0,0,0,.39-.78h0l.1-1h0a.65.65,0,0,1,.7-.86.41.41,0,0,0,.36-.42h0v-.18h0s0-.34-.57-.34h-4s-.44-.08-.44.29h0v.26h0s0,.36.44.36a.86.86,0,0,1,1,.89A2.06,2.06,0,0,1,44.41,37C42,37,42,34.75,42,31.83s.83-4.3,2.81-4.27a3.19,3.19,0,0,1,2.86,2,.54.54,0,0,0,.6.31h0l.49-.21h0s.31.08.18-.39h0l-.68-2.14h0s0-.39-.37-.31a.37.37,0,0,0-.36.23s.08.6-.89.18a3.71,3.71,0,0,0-2.06-.57Z"/><path class="cls-1" d="M74.08,37.22s.05-.29-.44-.31h-.22s-.63.06-1.21-.85c0,0-1.45-2.75-2.36-3.38,0,0-.29-.21,0-.32a4.44,4.44,0,0,0,2-.94s.83-.34.81-2c0,0,.18-2.47-3.42-2.5H62.56a.35.35,0,0,0-.44.39h0v.26h0s-.08.23.44.36c0,0,.57,0,.57.78h0l-.05,7.37h0s.06.79-.55.81c0,0-.53-.06-.49.45,0,0-.18.54.53.56h3.64s.54.1.55-.26h0v-.42h0s0-.33-.49-.33a.72.72,0,0,1-.55-.65h0v-3h0a.35.35,0,0,1,.39-.42h.74a1.56,1.56,0,0,1,1.41.86h0l1.61,3h0a2.15,2.15,0,0,0,1.85,1.25h2.08s.31.08.31-.36h0l0-.29Zm-6-5.52-1.9,0H66.1c-.11,0-.36-.07-.36-.66h0V28.24h0s-.08-.39.49-.39h0l2.18.05h0a1.72,1.72,0,0,1,1.77,1.67,1.87,1.87,0,0,1-2.13,2.14Z"/><path class="cls-1" d="M170.74,37.22s.05-.29-.44-.31h-.22s-.63.06-1.21-.85c0,0-1.45-2.75-2.36-3.38,0,0-.29-.21,0-.32a4.44,4.44,0,0,0,2-.94s.83-.34.81-2c0,0,.18-2.47-3.42-2.5h-6.62a.35.35,0,0,0-.44.39h0v.26h0s-.08.23.44.36c0,0,.57,0,.57.78h0l-.05,7.37h0s.06.79-.55.81c0,0-.53-.06-.49.45,0,0-.18.54.53.56h3.64s.54.1.55-.26h0v-.42h0s0-.33-.49-.33a.72.72,0,0,1-.55-.65h0v-3h0a.35.35,0,0,1,.39-.42h.74a1.56,1.56,0,0,1,1.41.86h0l1.61,3h0a2.15,2.15,0,0,0,1.85,1.25h2.08s.31.08.31-.36h0l0-.29Zm-6-5.52-1.9,0h-.06c-.11,0-.36-.07-.36-.66h0V28.24h0s-.08-.39.49-.39h0l2.18.05h0a1.72,1.72,0,0,1,1.77,1.67,1.87,1.87,0,0,1-2.13,2.14Z"/><path class="cls-1" d="M79.51,33.21a.44.44,0,0,0,.44-.44h0v-.94h0a.44.44,0,0,0-.44-.44H75.27a.44.44,0,0,0-.44.44h0v.94h0a.44.44,0,0,0,.44.44h4.24Z"/><path class="cls-1" d="M81.93,26.81s-.32,0-.32.32h0v.33h0s0,.4.46.31a.75.75,0,0,1,.84.78h0v7.57h0s.08.57-.59.59c0,0-.43,0-.45.31h0v.44h0s0,.39.35.42h7s.23.11.51-.44h0l.7-1.54h0s.18-.43-.23-.43h-.51a.42.42,0,0,0-.37.23h0l-.25.49h0a.89.89,0,0,1-.92.51H86.09s-.62.08-.63-.51h0V28.51h0s-.08-.7.53-.72h.29s.28,0,.27-.37h0v-.27h0s.06-.34-.37-.34H81.93Z"/><path class="cls-1" d="M140.47,26.81s-.32,0-.32.32h0v.33h0s0,.4.46.31a.75.75,0,0,1,.84.78h0v7.57h0s.08.57-.59.59c0,0-.43,0-.45.31h0v.44h0s0,.39.35.42h7s.23.11.51-.44h0l.7-1.54h0s.18-.43-.23-.43h-.51a.42.42,0,0,0-.37.23h0l-.25.49h0a.89.89,0,0,1-.92.51h-2.09s-.62.08-.62-.51h0V28.51h0s-.08-.7.53-.72h.29s.28,0,.27-.37h0v-.27h0s.06-.34-.37-.34h-4.26Z"/><path class="cls-1" d="M108.7,21.78s-7-.36-7,8.2c0,0-.31,7.47,6.87,7.84A5.85,5.85,0,0,0,111.7,37s.47-.21.57.18a.56.56,0,0,0,.63.47s.55,0,.6-.52h0l1-2.94h0s.18-.49-.23-.49h0l-.36,0h0a.53.53,0,0,0-.44.36,4.83,4.83,0,0,1-1.15,1.64,4.07,4.07,0,0,1-3.2,1.09s-4.17.1-4-6.77c0,0-.36-7.11,4.14-7.08a4.42,4.42,0,0,1,3.72,2.16.74.74,0,0,0,.65.44H114s.36,0,.23-.57h0l-.7-2.71h0s-.08-.34-.36-.34h-.52a.3.3,0,0,0-.18.36s.08.34-.1.44c0,0-.13.21-.49,0a6.46,6.46,0,0,0-3.18-.91Z"/><path class="cls-1" d="M118.57,34.41v0Z"/><path class="cls-1" d="M126.65,32.2c-.13-5.52-5.49-5.5-5.49-5.5s-5.36,0-5.49,5.5c0,0-.08,5.44,5.49,5.68,5.57-.23,5.49-5.68,5.49-5.68Zm-2.92,2.32c-.49,2.71-2.58,2.31-2.58,2.31s-2.08.4-2.58-2.31c-.46-2.53-.06-.4,0-.11a14.07,14.07,0,0,1,.14-5.1,2.61,2.61,0,0,1,4.9,0,14.08,14.08,0,0,1,.14,5.1c.05-.29.46-2.42,0,.11Z"/><path class="cls-1" d="M123.74,34.41v0Z"/><path class="cls-1" d="M128.16,26.81s-.37,0-.37.32h0v.33h0s0,.33.47.33h0l.23,0h0s.49-.08.49.74h0v5.57h0a4.18,4.18,0,0,0,4.51,3.85s4.43.23,4.3-4h0V28.42h0a.56.56,0,0,1,.57-.66h.2a.26.26,0,0,0,.25-.29h0v-.29h0a.27.27,0,0,0-.29-.36h-2.6s-.35,0-.35.28h0l0,.25h0a.34.34,0,0,0,.37.41s.7-.12.72.82h0V34h0s.27,2.83-2.28,2.83c0,0-2.85.49-2.85-3h0V28.38h0s.08-.61.63-.62h.16s.25,0,.27-.33h0v-.27h0s.08-.33-.25-.34h-4.14Z"/><path class="cls-1" d="M148.29,26.81a.5.5,0,0,0-.45.29h0l-.68,1.64h0s-.17.36.23.36h.52s.2.08.4-.3h0l.38-.74h0a.66.66,0,0,1,.54-.25h1.56s.46-.07.47.57h0v7.88h0s.08.55-.25.6h-.42a.29.29,0,0,0-.25.29h0v.42h0s-.06.31.31.31h4s.28.05.28-.29h0v-.31h0s.07-.39-.23-.39h-.48s-.51.13-.46-.74h0V28.41h0s-.16-.6.44-.6h1.55s.3-.09.54.33h0l.38.65h0a.65.65,0,0,0,.51.31h.49s.36,0,.21-.42h0L157.26,27h0s0-.23-.55-.23h-8.41Z"/></g></g></svg>