<svg xmlns="http://www.w3.org/2000/svg" viewBox="0 0 51.53 27.29"><defs><style>.cls-1{fill:#041419;fill-rule:evenodd;}</style></defs><title>Asset 15</title><g id="Layer_2" data-name="Layer 2"><g id="Layer_1-2" data-name="Layer 1"><path class="cls-1" d="M46.78,18a45,45,0,0,1-15.07,3.9h0V5.53h6.43L34.35,0,27.29.05,25.76,2.22,24.23.05,17.18,0,13.38,5.53h6.43V21.86h0A45,45,0,0,1,4.74,18h0L0,24.5H0s1.21.58,6.32,2.37h0l1.53-2.32h0a57.47,57.47,0,0,0,17.91,2.74,57.47,57.47,0,0,0,17.91-2.74h0l1.53,2.32h0c5.11-1.79,6.32-2.37,6.32-2.37h0L46.78,18Zm-21.6,8A57.14,57.14,0,0,1,7.43,23.08h0L5.9,25.29h0a24,24,0,0,1-4-1.48h0l3.16-4.37h0a50.08,50.08,0,0,0,15.81,3.69h0V4.32H15.44L17.7,1.16h5.85l1.63,2.37V25.92ZM44.1,23.08a57.14,57.14,0,0,1-17.75,2.84h0V3.53L28,1.16h5.85l2.27,3.16H30.66V23.13h0a50.08,50.08,0,0,0,15.81-3.69h0l3.16,4.37h0a24,24,0,0,1-4,1.48h0L44.1,23.08Z"/></g></g></svg>