<svg xmlns="http://www.w3.org/2000/svg" viewBox="0 0 40 40"><defs><style>.cls-1{fill:#041419;}.cls-2{fill:#9e987d;}</style></defs><title>Asset 2</title><g id="Layer_2" data-name="Layer 2"><g id="Layer_1-2" data-name="Layer 1"><rect class="cls-1" width="40" height="40"/><path class="cls-2" d="M26.24,35.7H13.77a10,10,0,0,1-10-10v-11a10,10,0,0,1,10-10H26.24a10,10,0,0,1,10,10v11A10,10,0,0,1,26.24,35.7ZM13.77,6.87A7.82,7.82,0,0,0,6,14.68v11a7.82,7.82,0,0,0,7.81,7.81H26.24A7.82,7.82,0,0,0,34,25.67v-11a7.82,7.82,0,0,0-7.81-7.81Z"/><path class="cls-2" d="M20,29.11a8.93,8.93,0,1,1,8.93-8.93A8.94,8.94,0,0,1,20,29.11Zm0-15.64a6.7,6.7,0,1,0,6.7,6.7A6.71,6.71,0,0,0,20,13.47Z"/><circle class="cls-2" cx="28.8" cy="11.51" r="1.85"/></g></g></svg>