<svg xmlns="http://www.w3.org/2000/svg" viewBox="0 0 40 40"><defs><style>.cls-1{fill:#041419;}.cls-2{fill:#9e987d;}</style></defs><title>Asset 4</title><g id="Layer_2" data-name="Layer 2"><g id="Layer_1-2" data-name="Layer 1"><rect class="cls-1" width="40" height="40"/><polygon class="cls-2" points="33.98 9.02 33.98 9.02 33.98 9.02 33.98 9.02"/><path class="cls-2" d="M32.89,11.87A3.73,3.73,0,0,1,31.8,12l0-.12A8.9,8.9,0,0,0,34,9.41c.08-.28,0-.38,0-.39l-1.82.77-1.52.69h0a6.08,6.08,0,0,0-4.42-1.82c-3.17,0-5.74,2.24-5.74,5a7.44,7.44,0,0,0,.23,1.89c0,.15,0-.15,0,0a17.89,17.89,0,0,1-7-2.07C9.14,11.16,8.85,9.55,8.85,9.55c-.72.77-1.09,3.3-.36,5.29a6.59,6.59,0,0,0,2.08,2.42h0A4.88,4.88,0,0,1,9.1,17a3.26,3.26,0,0,1-1-.51c-.45,1.09.45,3,2,4.44a8.23,8.23,0,0,0,2.56,1.33L10,22.35c-.15,2.51,5.27,4,5.27,4h0a8.85,8.85,0,0,1-5.4,2A10.29,10.29,0,0,1,7,27.89a14.06,14.06,0,0,0,9.6,3.44c9.67-.51,15.12-8.82,15.38-17v0a6.79,6.79,0,0,0,1.42-1.19,10,10,0,0,0,1.57-2.1S33.49,11.7,32.89,11.87Z"/><path class="cls-2" d="M34,9c0,.15,0,0,0,0Z"/></g></g></svg>