<svg xmlns="http://www.w3.org/2000/svg" viewBox="0 0 529.91 501.84"><defs><style>.cls-1,.cls-2,.cls-3{fill:none;stroke:#041419;}.cls-1,.cls-2{stroke-miterlimit:10;}.cls-1{fill-rule:evenodd;}.cls-3{stroke-linejoin:bevel;}</style></defs><title>Asset 5</title><g id="Layer_2" data-name="Layer 2"><g id="Layer_1-2" data-name="Layer 1"><path class="cls-1" d="M290.3,25a30.12,30.12,0,0,1,9.13,2.55h0l.93-1.07h0a12.62,12.62,0,0,1,2,1h0l-2,2.57h0a26.39,26.39,0,0,0-8.05-2.88h0l-1.07,9.38,2.84.33-1.38,1.52-3.06-.35L289,36.72,290.3,25Z"/><path class="cls-1" d="M280.23,25.35a30.12,30.12,0,0,1,9.47-.42h0l-1.34,11.72-1,1.14-3.06-.35-1-1.79,2.84.33,1.07-9.38h0a26.39,26.39,0,0,0-8.5,1h0l-1.34-2.95h0a12.62,12.62,0,0,1,2.19-.53h0l.67,1.25Z"/><path class="cls-2" d="M267.48.09l5.88,174.59s0,3.92,3.92,3.92,3.92-3.92,3.92-3.92L312.27.09"/><line class="cls-2" x1="268.18" y1="154.6" x2="257.01" y2="0.09"/><path class="cls-2" d="M273.36,174.67c-2.62,0-3.92-2.62-3.92-2.62l-.56-7.82"/><line class="cls-2" x1="269.75" y1="154.95" x2="260.28" y2="0.09"/><path class="cls-2" d="M273.32,173.52s-2.58-1-2.58-2.36l-.47-7.75"/><path class="cls-2" d="M271.4.09,275,174.67a4.23,4.23,0,0,0,2.29,3.92"/><line class="cls-2" x1="266.19" y1="167.07" x2="266.07" y2="165.5"/><path class="cls-2" d="M261,174.62l2.73,35.57s.24,1.42,3,1.1,2.69-1.27,2.69-1.27l-2.75-35.81"/><line class="cls-2" x1="260.39" y1="166.38" x2="260.5" y2="167.73"/><path class="cls-2" d="M272.68,154.6a6.62,6.62,0,0,1-4.51,0s-10.29.07-12.69,2.55-7.85,2.26-7.85,2.26l1.74,2a7.38,7.38,0,0,0,4.58,0,17.62,17.62,0,0,0,16.09-1.55,9.14,9.14,0,0,1,2.77-1.21Z"/><path class="cls-2" d="M265.77,157c.66.28,1.08.68,1.13,1.16.11,1.1-1.76,2.2-4.18,2.45s-4.47-.44-4.59-1.54c-.06-.54.36-1.07,1.08-1.51"/><path class="cls-2" d="M264.08,155c0,.48-.77,1-1.83,1.07s-2-.19-2-.68"/><path class="cls-2" d="M284.78,154.6a109.94,109.94,0,0,0,17.68-2.32c8.5-2,24.68,0,24.68,0a66.39,66.39,0,0,0,8,.73l-1.14-1.6-7.68-.76s-1.31-4.09-11-3.76l.33-2.29H314s-2.62,1.63-3.39,2.25c0,0-9.37,2.33-12.21,2.22s-12.65-.09-12.65-.09Z"/><path class="cls-2" d="M247.64,159.42s.22,3.25,1.42,4.08,4.8.82,4.8.82,3,2.67,8.84,1.93,7.79-3.64,10.13-4"/><path class="cls-2" d="M283.3,162.9s13.92-1.39,20.14-3.48c8.34-2.81,29.86,0,29.86,0l1.85-6.41"/><path class="cls-2" d="M260.24,155.35s.14-3.23,1.72-3.45,2.11,3.06,2.11,3.06"/><path class="cls-2" d="M260.24,155.35s-1.44-.41-.95,4.88"/><path class="cls-2" d="M264.08,155s1.61-.6,2.09,4.46"/><path class="cls-2" d="M263.76,210.19a9.4,9.4,0,0,0-1.52,1.75s1.35,1.68,5,1.21,4-2.11,4-2.11a3.67,3.67,0,0,0-1.76-1"/><path class="cls-2" d="M262.24,211.95l.38,5.5s.43,1.64,4.9,1.31c3.72-.27,4-2.13,4-2.13l-.25-5.58"/><polyline class="cls-2" points="265.62 218.8 268.02 227.09 269.01 218.53"/><path class="cls-2" d="M266.19,167.07a3.45,3.45,0,0,1-2.56,1.14,6.16,6.16,0,0,1-3.14-.49,9,9,0,0,0-2.59,1.47s.45,1.94,6.17,1.39c5.14-.5,5-2.86,5-2.86A7.85,7.85,0,0,0,266.19,167.07Z"/><path class="cls-2" d="M266.74,174.21c2.4-.77,2.7-2.15,2.7-2.15s1.27-1.52-.31-4.33"/><path class="cls-2" d="M257.91,169.2a3.86,3.86,0,0,0,.33,4.33s1,1.48,5.84,1.15a11.17,11.17,0,0,0,2.66-.47"/><ellipse class="cls-2" cx="127.87" cy="228.62" rx="16.02" ry="2.29"/><ellipse class="cls-2" cx="282.94" cy="290.84" rx="6.04" ry="0.99"/><path class="cls-2" d="M289,309.64c0,.54-2.7,1-6,1s-6-.44-6-1"/><ellipse class="cls-2" cx="117.06" cy="290.22" rx="16.98" ry="2.43"/><path class="cls-2" d="M134,383.08c0,1.34-7.6,2.43-17,2.43s-17-1.09-17-2.43"/><path class="cls-2" d="M134,498.36c0,1.34-7.6,2.43-17,2.43s-17-1.09-17-2.43"/><ellipse class="cls-2" cx="216.2" cy="307.41" rx="53.29" ry="7.9"/><path class="cls-2" d="M225.19,324.8c25.15.63,44.31,3.88,44.31,7.79,0,4.36-23.86,7.9-53.29,7.9s-53.29-3.54-53.29-7.9c0-3.12,12.2-5.82,29.92-7.1"/><path class="cls-2" d="M162.91,332.59v5.64c0,4.36,23.86,7.9,53.29,7.9s53.29-3.54,53.29-7.9v-5.64"/><path class="cls-2" d="M269.38,361.89a1.51,1.51,0,0,1,.38.94c0,4.36-23.86,7.9-53.29,7.9s-53.29-3.54-53.29-7.9c0-2.82,10-5.29,25-6.69"/><path class="cls-2" d="M402.07,308.86q11.38.74,22.27,1.6"/><path class="cls-2" d="M143.9,310.5q9.73-.88,19.92-1.65"/><path class="cls-2" d="M43.91,325.66a538.43,538.43,0,0,1,56.17-10.26"/><path class="cls-2" d="M30.41,396.35c47.8,14.72,143,24.75,252.53,24.75,81.46,0,154.94-5.54,206.93-14.44l-.08-23.77c-52,8.88-125.44,14.42-206.85,14.42-109.81,0-205.13-10.08-252.83-24.84Z"/><line class="cls-2" x1="458.28" y1="377.97" x2="489.8" y2="382.9"/><path class="cls-2" d="M204,370.43c25.06,1.17,51.53,1.79,78.9,1.79,40.52,0,79.06-1.37,114-3.84l27.43,4.29"/><ellipse class="cls-2" cx="349.68" cy="307.41" rx="53.29" ry="7.9"/><path class="cls-2" d="M308.11,347.52c-15.11,2.2-25.17,6.11-25.17,10.57,0,6.87,23.86,12.44,53.29,12.44,20.19,0,37.77-2.62,46.81-6.49a17.46,17.46,0,0,0,4.81-2.84"/><path class="cls-2" d="M374.75,369.79a54.07,54.07,0,0,0,8.29-2.64,17.46,17.46,0,0,0,4.81-2.84,4.31,4.31,0,0,0,1.68-3.11"/><path class="cls-2" d="M310,372c-16.14-2.14-27-6.19-27-10.83v-3.11"/><path class="cls-2" d="M373,358.67c-6.64.67-14.66,1.06-23.28,1.06-22.94,0-41.54-2.76-41.54-6.16v-8.13"/><path class="cls-2" d="M399,331.51c-4.26,3.68-24.7,6.47-49.28,6.47-27.67,0-50.09-3.54-50.09-7.9V318.23"/><path class="cls-2" d="M296.39,334.88c0,4.36,23.86,7.9,53.29,7.9s53.29-3.54,53.29-7.9v5.61c0,4.36-23.86,7.9-53.29,7.9s-53.29-3.54-53.29-7.9Z"/><line class="cls-2" x1="111.85" y1="228.62" x2="111.85" y2="287.8"/><polyline class="cls-2" points="143.89 228.62 143.89 307.41 143.89 312.84"/><ellipse class="cls-2" cx="437.46" cy="228.62" rx="16.02" ry="2.29"/><line class="cls-2" x1="421.44" y1="228.62" x2="421.44" y2="304.8"/><line class="cls-2" x1="453.48" y1="228.62" x2="453.48" y2="288.53"/><line class="cls-2" x1="100.08" y1="290.09" x2="100.08" y2="383.08"/><line class="cls-2" x1="134.05" y1="290.22" x2="134.05" y2="383.08"/><line class="cls-2" x1="100.08" y1="410.56" x2="100.08" y2="498.36"/><line class="cls-2" x1="134.05" y1="414.14" x2="134.05" y2="498.36"/><path class="cls-2" d="M143.89,447.67c0,1-4,1.81-9.8,2.2"/><line class="cls-2" x1="143.89" y1="415.24" x2="143.89" y2="447.67"/><ellipse class="cls-2" cx="441.33" cy="290.22" rx="16.98" ry="2.43"/><path class="cls-2" d="M424.34,355.75a37.18,37.18,0,0,1-5.74.12c-5.11-.25-9.21-1.31-9.16-2.35s4.24-1.69,9.35-1.43a37.63,37.63,0,0,1,5.55.66"/><path class="cls-2" d="M424.34,363.45a37.18,37.18,0,0,1-5.74.12c-5.11-.25-9.21-1.31-9.16-2.35v-7.69"/><path class="cls-2" d="M458.31,386.23c0,1.34-7.6,2.43-17,2.43s-17-1.09-17-2.43"/><path class="cls-2" d="M458.31,498.92c0,1.34-7.6,2.43-17,2.43s-17-1.09-17-2.43"/><line class="cls-2" x1="424.34" y1="290.09" x2="424.34" y2="386.23"/><line class="cls-2" x1="458.31" y1="290.22" x2="458.31" y2="386.23"/><line class="cls-2" x1="424.41" y1="415.14" x2="424.41" y2="499.62"/><path class="cls-2" d="M424.41,448.81c-1.87-.39-3-.86-3-1.37"/><line class="cls-2" x1="421.5" y1="415.28" x2="421.5" y2="448.15"/><line class="cls-2" x1="458.31" y1="410.79" x2="458.31" y2="499.62"/><line class="cls-2" x1="276.9" y1="290.84" x2="276.9" y2="310.11"/><line class="cls-2" x1="288.98" y1="290.84" x2="288.98" y2="310.11"/><path class="cls-2" d="M43.91,334.88v-9.21s26,3.63,50.61,9.21"/><path class="cls-2" d="M89.4,359.62a262.92,262.92,0,0,0-45.49-8.73v-10.4"/><path class="cls-2" d="M30.11,372.48s46-5.14,70-17.17"/><line class="cls-2" x1="32.4" y1="334.88" x2="100.08" y2="334.88"/><line class="cls-2" x1="32.4" y1="340.49" x2="100.08" y2="340.49"/><path class="cls-2" d="M4.14,306.43s-.62,14-.62,31.06.62,31.06.62,31.06H29.66s-.44-14-.44-31.06.44-31.06.44-31.06Z"/><path class="cls-2" d="M4.2,368.55s-2.39-3.26-2.61-6S.5,347.73.5,337.49s.87-22.39,1.09-25.1,2.61-6,2.61-6"/><polyline class="cls-2" points="29.66 368.55 32.4 365.19 32.4 337.49 32.4 309.79 29.66 306.43"/><line class="cls-2" x1="3.52" y1="337.49" x2="29.23" y2="337.49"/><line class="cls-2" x1="3.52" y1="333.41" x2="29.23" y2="333.41"/><line class="cls-2" x1="3.52" y1="329.32" x2="29.23" y2="329.32"/><line class="cls-2" x1="3.52" y1="325.23" x2="29.23" y2="325.23"/><line class="cls-2" x1="3.82" y1="321.15" x2="29.53" y2="321.15"/><line class="cls-2" x1="3.82" y1="317.06" x2="29.53" y2="317.06"/><line class="cls-2" x1="3.82" y1="314.12" x2="29.53" y2="314.12"/><line class="cls-2" x1="3.82" y1="311.17" x2="29.53" y2="311.17"/><line class="cls-2" x1="3.74" y1="308.23" x2="29.44" y2="308.23"/><line class="cls-2" x1="3.52" y1="341.58" x2="29.23" y2="341.58"/><line class="cls-2" x1="3.52" y1="345.67" x2="29.23" y2="345.67"/><line class="cls-2" x1="3.52" y1="349.75" x2="29.23" y2="349.75"/><line class="cls-2" x1="3.82" y1="353.84" x2="29.53" y2="353.84"/><line class="cls-2" x1="3.82" y1="357.93" x2="29.53" y2="357.93"/><line class="cls-2" x1="3.82" y1="360.87" x2="29.53" y2="360.87"/><line class="cls-2" x1="3.82" y1="363.81" x2="29.53" y2="363.81"/><line class="cls-2" x1="3.74" y1="366.75" x2="29.44" y2="366.75"/><path class="cls-2" d="M289,309.68c2.3.29,3.78.75,3.78,1.26,0,.89-4.4,1.6-9.82,1.6s-9.82-.72-9.82-1.6c0-.51,1.48-1,3.78-1.26"/><path class="cls-2" d="M292.76,310.95v2.76c0,.89-4.4,1.6-9.82,1.6s-9.82-.72-9.82-1.6v-2.76"/><path class="cls-2" d="M403,307.41v3.7c0,4.36-23.86,7.9-53.29,7.9s-53.29-3.54-53.29-7.9v-3.7"/><path class="cls-2" d="M162.91,307.41v3.7c0,4.36,23.86,7.9,53.29,7.9s53.29-3.54,53.29-7.9v-3.7"/><line class="cls-2" x1="464.11" y1="312.61" x2="502.11" y2="309.82"/><line class="cls-2" x1="463.93" y1="327.11" x2="502.91" y2="324.04"/><line class="cls-2" x1="458.31" y1="345.23" x2="492.63" y2="349.81"/><line class="cls-2" x1="458.31" y1="361.51" x2="491.1" y2="365.88"/><ellipse class="cls-2" cx="518.78" cy="360.49" rx="16.57" ry="9.15" transform="translate(125.88 855.17) rotate(-86.34)"/><path class="cls-2" d="M517.73,377l-19.32-2.65c-5-.32-8.66-8-8.08-17.12s5.15-16.27,10.19-15.95L519.84,344"/><path class="cls-2" d="M487.2,365.25c-1.29-.08-2.11-3.73-1.83-8.15s1.56-7.93,2.85-7.85"/><path class="cls-2" d="M482.37,364.76c-1.29-.08-2.11-3.73-1.83-8.15s1.56-7.93,2.85-7.85"/><path class="cls-2" d="M477.55,364c-1.29-.08-2.11-3.73-1.83-8.15s1.56-7.93,2.85-7.85"/><path class="cls-2" d="M472.73,363.31c-1.29-.08-2.11-3.73-1.83-8.15s1.56-7.93,2.85-7.85"/><path class="cls-2" d="M463.08,362c-1.29-.08-2.11-3.73-1.83-8.15s1.56-7.93,2.85-7.85"/><path class="cls-2" d="M495.9,310.24c1.09-5.73,3.71-9.76,6.86-9.82,4.27-.09,7.88,7.16,8.07,16.18s-3.12,16.42-7.39,16.51c-3,.06-5.62-3.42-7-8.58"/><path class="cls-2" d="M503.44,333.11,522,331.79c4.27-.09,7.58-7.48,7.39-16.51s-3.8-16.27-8.07-16.18l-18.57,1.32"/><path class="cls-2" d="M501.56,309.86a1.86,1.86,0,0,1,1-.37c1.9,0,3.51,3.19,3.59,7.2s-1.39,7.31-3.29,7.35"/><path class="cls-2" d="M465.92,312.48a10.45,10.45,0,0,1,3.45,6.54c.65,4.42,0,7.67-.64,7.72"/><path class="cls-2" d="M471.57,311.89a10.45,10.45,0,0,1,3.45,6.54c.65,4.42,0,7.67-.64,7.72"/><path class="cls-2" d="M477.23,311.55a10.45,10.45,0,0,1,3.45,6.54c.65,4.42,0,7.67-.64,7.72"/><path class="cls-2" d="M482.88,311a10.45,10.45,0,0,1,3.45,6.54c.65,4.42,0,7.67-.64,7.72"/><path class="cls-2" d="M488.53,310.68a10.45,10.45,0,0,1,3.45,6.54c.65,4.42,0,7.67-.64,7.72"/><path class="cls-2" d="M494.19,310.27a10.45,10.45,0,0,1,3.45,6.54c.65,4.42,0,7.67-.64,7.72"/><path class="cls-2" d="M499.84,309.66a10.45,10.45,0,0,1,3.45,6.54c.65,4.42,0,7.67-.64,7.72"/><path class="cls-2" d="M276.9,298.14c-32.26-.55-69.37-5.22-69.37-5.22-15.48,4.36-20.27,3.6-20.27,3.6s36.51,1.29,46,1.68,38.25,2,38.25,9.22a13.13,13.13,0,0,0,5.4,1.09"/><path class="cls-2" d="M289,298.14c32.26-.55,69.37-5.22,69.37-5.22,15.48,4.36,20.27,3.6,20.27,3.6s-36.51,1.29-46,1.68-38.25,2-38.25,9.22a13.13,13.13,0,0,1-5.4,1.09"/><line class="cls-2" x1="188.03" y1="296.56" x2="188.03" y2="300.71"/><path class="cls-2" d="M320.68,317.55H299.52l-1.74,2.16H275.1l-5.61,3.5c-20.22,0-44.3-3.5-44.3-3.5v5"/><polyline class="cls-2" points="268 330.73 269.49 330.73 275.1 325.29 297.99 325.29 299.51 321.12 323.71 321.12 323.71 318.02"/><line class="cls-2" x1="297.77" y1="319.71" x2="297.77" y2="325.29"/><line class="cls-2" x1="299.52" y1="317.55" x2="299.52" y2="321.12"/><line class="cls-2" x1="275.1" y1="319.71" x2="275.1" y2="325.29"/><line class="cls-2" x1="269.49" y1="323.22" x2="269.49" y2="330.73"/><line class="cls-2" x1="268.6" y1="312.55" x2="273.13" y2="313.13"/><line class="cls-2" x1="292.76" y1="313.71" x2="299.52" y2="313.79"/><path class="cls-2" d="M274.18,279.3s-7.68-.16-17.65,6.21-13.73,8.34-25.34,3.27l-7.68,5.88h22.07a23.74,23.74,0,0,0,11.44-4.9,30.62,30.62,0,0,1,17.16-6.54Z"/><path class="cls-2" d="M282.94,275.37s-4.35-.22-5.44,1.53v4.36a24,24,0,0,0,5.44.65"/><path class="cls-2" d="M277.5,276.9"/><path class="cls-2" d="M277.5,276.9s-3.32-.22-3.32,2.4v3.92s1.2,1.53,1.66,1.53,1.66-3.49,1.66-3.49"/><line class="cls-2" x1="275.84" y1="284.75" x2="277.5" y2="286.98"/><path class="cls-2" d="M282.94,287h-9.82s-2,0-5.13,2.87-3.9,4.81-3.9,4.81-1.12,1.83,3.15,3.2"/><path class="cls-2" d="M267,284.52s-3.16,1.5-5,6.31a11.84,11.84,0,0,1-6.66,6.44"/><path class="cls-2" d="M225.19,293.79c.76-.11,20.38-.87,20.38-.87s4.47.11,11-4.69,12.66-6.32,17.6-6.32"/><path class="cls-2" d="M291.71,279.3s7.68-.16,17.65,6.21,13.73,8.34,25.34,3.27l7.68,5.88H320.31a23.74,23.74,0,0,1-11.44-4.9,30.62,30.62,0,0,0-17.16-6.54Z"/><path class="cls-2" d="M282.94,275.37s4.35-.22,5.44,1.53v4.36a24,24,0,0,1-5.44.65"/><path class="cls-2" d="M288.38,276.9"/><path class="cls-2" d="M288.38,276.9s3.32-.22,3.32,2.4v3.92s-1.2,1.53-1.66,1.53-1.66-3.49-1.66-3.49"/><line class="cls-2" x1="290.04" y1="284.75" x2="288.38" y2="286.98"/><path class="cls-2" d="M282.94,287h9.82s2,0,5.13,2.87,3.9,4.81,3.9,4.81,1.12,1.83-3.15,3.2"/><path class="cls-2" d="M298.85,284.52s3.16,1.5,5,6.31a11.84,11.84,0,0,0,6.66,6.44"/><path class="cls-2" d="M340.69,293.79c-.76-.11-20.38-.87-20.38-.87s-4.47.11-11-4.69-12.66-6.32-17.6-6.32"/><path class="cls-2" d="M168.16,314.54V319a21.31,21.31,0,0,0,8.1,4.2v-6.87"/><polyline class="cls-2" points="176.26 323.22 178.22 322.5 178.22 316.66"/><path class="cls-2" d="M191.31,318.1v7.18s16.78,2.53,33.89-.6"/><line class="cls-2" x1="178.22" y1="322.5" x2="191.31" y2="323.22"/><ellipse class="cls-2" cx="216.2" cy="307.41" rx="6.38" ry="0.95"/><ellipse class="cls-2" cx="151.45" cy="328.05" rx="3.19" ry="1"/><ellipse class="cls-2" cx="145.69" cy="323.45" rx="3.19" ry="1"/><ellipse class="cls-2" cx="153.85" cy="323.79" rx="3.19" ry="1"/><ellipse class="cls-2" cx="349.68" cy="307.41" rx="6.38" ry="0.95"/><path class="cls-2" d="M326.77,318.25v14.33s-3.06-.44-3.06-1.86v-9.61"/><path class="cls-2" d="M364.9,318.37v12.36a9.76,9.76,0,0,0,5.88,0V318.37"/><path class="cls-2" d="M330.69,318.5v15.4a7.89,7.89,0,0,0,3.11,1V318.66"/><path class="cls-2" d="M403,311.12l4.43.43s3.27,8.67-14.39,13.22v8.34S404,331.85,407.64,324"/><line class="cls-2" x1="407.41" y1="311.55" x2="407.41" y2="324.04"/><path class="cls-2" d="M393,324.77l-10-3.65s3.48-1,10-5"/><polyline class="cls-2" points="393.02 333.11 383 329.1 383 321.12"/><path class="cls-2" d="M373,318.23v10.44s2.83.16,10-1.55"/><path class="cls-2" d="M376.13,318s5.66,2,10.29,1.7"/><path class="cls-2" d="M373,324s3.16,1.79,10,2"/><path class="cls-2" d="M397.2,332.59l12,2.29s11.06-7.79,12.29-13.76H407.64v-1.78l13.79-2.57a25.66,25.66,0,0,0-14-4.5"/><path class="cls-2" d="M394.55,333.59l14.76,3.24s5.77-3,12.12-11.6v-4.12"/><polyline class="cls-2" points="421.44 316.76 421.44 318.23 407.64 321.12"/><line class="cls-2" x1="409.15" y1="334.88" x2="409.15" y2="336.84"/><path class="cls-2" d="M272.94,340.49v5.18c0,4.36-19,7.9-42.4,7.9s-42.4-3.54-42.4-7.9v-.72"/><path class="cls-2" d="M188.13,354.94v3.75c0,4.36,19,7.9,42.4,7.9s42.4-3.54,42.4-7.9v-3.75"/><path class="cls-2" d="M264.87,350.3c5.07,1.3,8.07,2.9,8.07,4.64,0,4.36-19,7.9-42.4,7.9s-42.4-3.54-42.4-7.9c0-1.73,3-3.33,8.07-4.64"/><path class="cls-2" d="M269.49,337.36c2.22,1,3.44,2,3.44,3.12,0,4.36-19,7.9-42.4,7.9-12.73,0-24.14-1-31.92-2.7"/><path class="cls-2" d="M373,347.6V362s23.64.53,30-5.84V341.63"/><line class="cls-2" x1="296.27" y1="335.35" x2="299.59" y2="330.08"/><polyline class="cls-3" points="458.31 308.81 464.11 308.86 458.31 305.51"/><polyline class="cls-3" points="424.34 304.14 411.33 304.14 419.5 308.5 424.34 308.54"/><line class="cls-2" x1="411.33" y1="304.14" x2="411.33" y2="309.48"/><polyline class="cls-3" points="464.11 308.86 464.11 328.98 458.31 328.98"/><line class="cls-3" x1="418.7" y1="328.67" x2="424.34" y2="328.98"/><line class="cls-2" x1="411.98" y1="335.06" x2="424.34" y2="335.86"/><path class="cls-2" d="M458.31,332.43h9.17l1.45,3h2.64s-1.67-6.45-7.46-7.36"/><line class="cls-2" x1="471.57" y1="335.46" x2="471.57" y2="347"/><path class="cls-2" d="M468.93,335.46v11.25c-1.29-.08-2.57,3.43-2.85,7.85s.53,8.07,1.83,8.15"/><line class="cls-2" x1="467.48" y1="332.43" x2="467.48" y2="346.45"/><polyline class="cls-2" points="408 336.84 408 356.76 409.15 357.25"/><path class="cls-2" d="M471.16,334.29h6s12.63,3.7,17.07,10.8"/><line class="cls-2" x1="471.57" y1="345.98" x2="493.33" y2="345.98"/><line class="cls-2" x1="458.31" y1="372.48" x2="494.57" y2="372.48"/><path class="cls-2" d="M273.13,342.88a21.68,21.68,0,0,0,2.71-4.65h12.54s-.43,5.38,12.33,5.38"/><path class="cls-2" d="M273.13,340.61a21.68,21.68,0,0,0,2.71-4.65h12.54s-.33,4.12,8.14,5.15"/><path class="cls-2" d="M164.2,312.84s-6.57,2-11.15,1.7a43.34,43.34,0,0,1-9.15-1.7,21.91,21.91,0,0,0-9.84,7.69"/><path class="cls-2" d="M134.11,330.27a17.05,17.05,0,0,1,13.49,2.83s9.22-2.71,16.6-1.94c0,0,0-5.59,7-10"/><path class="cls-2" d="M134.11,337.11a17.05,17.05,0,0,1,13.49,2.83s9.22-2.71,16.6-1.94"/><line class="cls-2" x1="147.6" y1="333.11" x2="147.6" y2="339.94"/><path class="cls-2" d="M174.05,322.5s-4.19,2.57-5.51,6.55"/></g></g></svg>